<svg id="Layer_1" data-name="Layer 1" xmlns="http://www.w3.org/2000/svg" viewBox="0 0 116.25 70"><defs><style>.cls-1{fill:#b3b3b3}</style></defs><title>Artboard 34</title><path class="cls-1" d="M15.8 38.6l-.64-1.91H9.51l-.64 1.91h-2.6l5.19-15h1.74l5.19 15zm-3.45-10.92l-2.08 6.8h4.14z"/><path class="cls-1" d="M21.47 35.27A1.73 1.73 0 1 1 19.75 37a1.73 1.73 0 0 1 1.72-1.74"/><path class="cls-1" d="M25.63 23.58h2.55V38.6h-2.55z"/><path class="cls-1" d="M32.11 35.27A1.73 1.73 0 1 1 30.39 37a1.73 1.73 0 0 1 1.72-1.74"/><path class="cls-1" d="M10.24 46.09v4.25h6.21v2.21h-6.21v4.15h6.21v2.21H7.78V43.88h8.67v2.21h-6.21z"/><path class="cls-1" d="M27.2 58.91h-2.71l-1.91-3.22-1.91 3.22h-2.7l3.26-5.05-3.2-4.95h2.7l1.85 3.13 1.85-3.13h2.7l-3.2 4.95 3.27 5.05z"/><path class="cls-1" d="M30.95 50.26A3.76 3.76 0 0 1 34 48.65a5.26 5.26 0 0 1 0 10.52 3.76 3.76 0 0 1-3.09-1.61v6.37h-2.3v-15h2.34zm0 3.65a2.95 2.95 0 1 0 3-3.18 3 3 0 0 0-3 3.18"/><path class="cls-1" d="M42.56 54.61a2.43 2.43 0 0 0 2.68 2.6 2 2 0 0 0 2.12-1.31h2.36c-.28 1.72-1.93 3.26-4.49 3.26-3.37 0-5-2.32-5-5.26s1.78-5.26 4.94-5.26a4.51 4.51 0 0 1 4.64 4.51 8.2 8.2 0 0 1-.11 1.46zm0-1.74h5a2.31 2.31 0 0 0-2.43-2.47 2.34 2.34 0 0 0-2.55 2.47"/><path class="cls-1" d="M57.94 51.07A3.39 3.39 0 0 0 57 51c-2 0-3.09 1.14-3.09 3.63v4.31h-2.32v-10h2.34v1.61A3.61 3.61 0 0 1 57 48.78a2.38 2.38 0 0 1 .92.15z"/><path class="cls-1" d="M60.86 43.52a1.73 1.73 0 1 1-1.72 1.74 1.73 1.73 0 0 1 1.72-1.74m-1.16 5.39H62v10h-2.3z"/><path class="cls-1" d="M76.83 58.91v-5.6c0-1.59-.56-2.6-1.87-2.6s-2.1.73-2.1 3.11v5.09h-2.34v-5.63c0-1.59-.51-2.58-1.82-2.58s-2.15.73-2.15 3.11v5.09h-2.34v-10h2.34v1.4a3.43 3.43 0 0 1 5.94.13 3.36 3.36 0 0 1 3.07-1.78c3 0 3.61 2.06 3.61 3.93v6.33z"/><path class="cls-1" d="M83 54.61a2.43 2.43 0 0 0 2.68 2.6 2 2 0 0 0 2.12-1.31h2.36c-.28 1.72-1.93 3.26-4.49 3.26-3.37 0-5-2.32-5-5.26s1.78-5.26 4.94-5.26a4.51 4.51 0 0 1 4.64 4.51 8.2 8.2 0 0 1-.11 1.46zm0-1.74h5a2.31 2.31 0 0 0-2.43-2.47A2.34 2.34 0 0 0 83 52.88"/><path class="cls-1" d="M92 48.91h2.34v1.39a3.56 3.56 0 0 1 3.26-1.65 3.4 3.4 0 0 1 3 1.35 5 5 0 0 1 .64 3v5.94h-2.29v-5.21c0-1.72-.49-3-2.17-3s-2.4 1.31-2.4 3v5.17H92z"/><path class="cls-1" d="M109.14 58.91a11.31 11.31 0 0 1-1.74.13c-1.14 0-3.24-.15-3.24-3.52v-4.66h-1.7v-2h1.7v-3h2.34v3h2.3v2h-2.3V55c0 1.74.54 2 1.46 2a8.9 8.9 0 0 0 1.18-.09z"/><path class="cls-1" d="M8.17 7.69H6.32v-1.1h4.95v1.1H9.41v6.41H8.17V7.69z"/><path class="cls-1" d="M12.11 6.59h1.17V9.8a1.78 1.78 0 0 1 1.63-.8 1.7 1.7 0 0 1 1.5.68 2.51 2.51 0 0 1 .32 1.48v3h-1.17v-2.65c0-.86-.25-1.51-1.08-1.51s-1.2.65-1.2 1.51v2.59h-1.17z"/><path class="cls-1" d="M18.74 6.41a.86.86 0 1 1-.86.87.87.87 0 0 1 .86-.87m-.58 2.69h1.17v5h-1.17z"/><path class="cls-1" d="M24.48 12.71c0 1-.9 1.52-2 1.52a1.85 1.85 0 0 1-2-1.81h1.14c0 .65.41.89 1 .89s.82-.15.82-.58-.5-.5-1.56-.91c-.7-.27-1.19-.53-1.19-1.4S21.48 9 22.49 9a1.78 1.78 0 0 1 1.91 1.7h-1.13a.7.7 0 0 0-.81-.77c-.4 0-.72.19-.72.55s.46.48 1.37.84c.7.27 1.36.51 1.36 1.43"/><path class="cls-1" d="M28.87 6.41a.86.86 0 1 1-.86.87.87.87 0 0 1 .86-.87m-.58 2.69h1.17v5h-1.17z"/><path class="cls-1" d="M34.61 12.71c0 1-.9 1.52-2 1.52a1.85 1.85 0 0 1-2-1.81h1.14c0 .65.41.89 1 .89s.82-.15.82-.58-.5-.5-1.56-.91c-.7-.27-1.19-.53-1.19-1.4S31.6 9 32.62 9a1.78 1.78 0 0 1 1.91 1.7H33.4a.7.7 0 0 0-.81-.77c-.4 0-.72.19-.72.55s.46.48 1.37.84c.7.27 1.36.51 1.36 1.43"/><path class="cls-1" d="M43.32 9.1v5h-1.17v-.68a1.88 1.88 0 0 1-1.54.8A2.55 2.55 0 0 1 38 11.6 2.55 2.55 0 0 1 40.6 9a1.88 1.88 0 0 1 1.54.81V9.1zm-1.17 2.5a1.47 1.47 0 1 0-2.94 0 1.47 1.47 0 1 0 2.94 0"/><path class="cls-1" d="M44.83 9.1H46v.7a1.78 1.78 0 0 1 1.63-.8 1.7 1.7 0 0 1 1.5.68 2.51 2.51 0 0 1 .32 1.48v3h-1.16v-2.65c0-.86-.25-1.51-1.08-1.51s-1.2.65-1.2 1.51v2.59h-1.18z"/></svg>