<svg id="Layer_1" data-name="Layer 1" xmlns="http://www.w3.org/2000/svg" viewBox="0 0 45 45"><defs><style>.cls-1,.cls-3{fill:#ccc}.cls-2,.cls-4{fill:none}.cls-2,.cls-3{stroke:#000;stroke-miterlimit:10}</style></defs><title>Artboard 3</title><path id="_Path_" data-name="&lt;Path&gt;" class="cls-1" d="M33.36 20.5s1.08 1.5-.7 3.27l-5 5s-2.23 2.67-4.63.27l-8.48-8.48z"/><path id="_Path_2" data-name="&lt;Path&gt;" class="cls-2" d="M15.22 20.5h18.31"/><g id="_Group_" data-name="&lt;Group&gt;"><path id="_Path_3" data-name="&lt;Path&gt;" class="cls-2" d="M24.38 10.92l8.5 8.5a3.08 3.08 0 0 1 0 4.36L27.63 29a3.08 3.08 0 0 1-4.36 0l-8.5-8.5z"/><path id="_Path_4" data-name="&lt;Path&gt;" class="cls-3" d="M14 22.75s-2.64 6.31-2.64 7.58a2.52 2.52 0 0 0 2.64 2.5 2.47 2.47 0 0 0 2.64-2.43c0-1.12-2.64-7.65-2.64-7.65z"/></g><path class="cls-4" d="M0 0h45v45H0z"/></svg>