<svg xmlns="http://www.w3.org/2000/svg" width="42" height="42" viewBox="0 0 42 42"><path d="M29.92 11.75v4.52h-.57a8.31 8.31 0 0 0-.89-2 3.36 3.36 0 0 0-1.35-1.07 4.51 4.51 0 0 0-1.68-.2h-2.37v13.32a5.26 5.26 0 0 0 .15 1.68 3.24 3.24 0 0 0 .57.9 1.73 1.73 0 0 0 1.15.58h1.25v.81H16v-.85h1.09a1.85 1.85 0 0 0 1.2-.6 2.06 2.06 0 0 0 .5-.77 7.06 7.06 0 0 0 .12-1.75V13h-2.3a3.63 3.63 0 0 0-2.51.56 5.86 5.86 0 0 0-1.39 2.74h-.63v-4.55h17.84m.95-.95H11.13v6.42h2.37l.17-.73a5 5 0 0 1 1.11-2.26 3.23 3.23 0 0 1 1.86-.3H18v12.39a7.37 7.37 0 0 1-.07 1.44 1.11 1.11 0 0 1-.26.39 1 1 0 0 1-.54.34h-2v2.71h12.01v-2.71h-2.2a.82.82 0 0 1-.49-.31 2.32 2.32 0 0 1-.37-.62 7 7 0 0 1-.08-1.24v-12.4h1.43a4.34 4.34 0 0 1 1.27.08 2.41 2.41 0 0 1 1 .76 7.44 7.44 0 0 1 .77 1.79l.21.66h2.2V10.8z"/></svg>