<svg xmlns="http://www.w3.org/2000/svg" viewBox="0 0 25.355 25.379">
  <defs>
    <style>
      .cls-1 {
        fill: #fff;
      }
    </style>
  </defs>
  <path id="Forma_1" data-name="Forma 1" class="cls-1" d="M251.051,609.98a4.643,4.643,0,0,0-3.64,1.772l-7.914-4.016a4.1,4.1,0,0,0-.034-2.494l7.879-4a4.6,4.6,0,1,0-.949-2.772,4.543,4.543,0,0,0,.18,1.2l-7.911,4.017a4.62,4.62,0,1,0,.069,5.616l7.876,4a4.524,4.524,0,0,0-.213,1.3,4.66,4.66,0,1,0,4.658-4.625Z" transform="translate(-230.357 -593.85)"/>
</svg>
